<svg data-v-fde0c5aa="" xmlns="http://www.w3.org/2000/svg" viewBox="0 0 300 300" class="iconLeft"><!----><defs data-v-fde0c5aa=""><!----></defs><rect data-v-fde0c5aa="" fill="#48B68D" x="0" y="0" width="300px" height="300px" class="logo-background-square"></rect><defs data-v-fde0c5aa=""><!----></defs><g data-v-fde0c5aa="" id="a05b9454-65bc-4d7e-97de-c383c05c1ebe" fill="#294F58" transform="matrix(2.645765193873604,0,0,2.645765193873604,98.68768974583462,132.77606798231523)"><path d="M6.46 7.56C7.39 7.14 8.00 6.30 8.00 5.18C8.00 3.54 6.70 2.38 5.09 2.38L1.28 2.38L1.28 12.88L5.46 12.88C7.05 12.88 8.33 11.74 8.33 10.12C8.33 8.84 7.56 7.93 6.46 7.56ZM6.88 5.27C6.88 6.30 6.02 7.09 4.97 7.09L2.38 7.09L2.38 3.50L4.97 3.50C6.02 3.50 6.88 4.23 6.88 5.27ZM5.32 11.76L2.38 11.76L2.38 8.17L5.32 8.17C6.35 8.17 7.21 8.96 7.21 9.99C7.21 11.03 6.35 11.76 5.32 11.76ZM11.11 4.57C11.52 4.57 11.87 4.23 11.87 3.83C11.87 3.39 11.52 3.08 11.11 3.08C10.69 3.08 10.34 3.39 10.34 3.83C10.34 4.23 10.69 4.57 11.11 4.57ZM10.57 12.88L11.66 12.88L11.66 5.88L10.57 5.88ZM14.33 12.88L15.42 12.88L15.42 0L14.33 0ZM17.97 12.88L19.06 12.88L19.06 0L17.97 0ZM24.83 6.93L24.83 5.88L22.96 5.88L22.96 2.83L21.88 2.83L21.88 5.88L20.70 5.88L20.70 6.93L21.88 6.93L21.88 11.04C21.88 12.15 22.80 13.02 23.89 13.02C24.24 13.02 24.62 12.92 24.82 12.79L24.82 11.97L24.01 11.97C23.45 11.97 22.96 11.55 22.96 10.90L22.96 6.93ZM30.10 5.74C29.10 5.74 28.30 6.18 27.77 6.88L27.77 5.88L26.69 5.88L26.69 12.88L27.77 12.88L27.77 9.08C27.77 7.81 28.82 6.83 30.10 6.83C30.31 6.83 30.48 6.84 30.64 6.90L30.64 5.79C30.48 5.76 30.31 5.74 30.10 5.74ZM39.52 11.97C39.13 11.97 38.80 11.71 38.80 11.06L38.80 5.88L37.71 5.88L37.71 6.79C37.06 6.14 36.16 5.74 35.16 5.74C33.15 5.74 31.52 7.37 31.52 9.38C31.52 11.39 33.15 13.02 35.16 13.02C36.21 13.02 37.15 12.53 37.82 11.81C38.05 12.53 38.61 13.02 39.43 13.02C39.62 13.02 39.81 12.97 39.95 12.88L39.95 11.97ZM35.16 11.94C33.74 11.94 32.60 10.80 32.60 9.38C32.60 7.96 33.74 6.83 35.16 6.83C36.56 6.83 37.71 7.96 37.71 9.38C37.71 10.80 36.56 11.94 35.16 11.94ZM44.59 13.02C46.22 13.02 47.58 11.97 48.05 10.50L46.90 10.50C46.48 11.36 45.61 11.94 44.59 11.94C43.17 11.94 42.04 10.82 42.04 9.38C42.04 7.95 43.17 6.83 44.59 6.83C45.61 6.83 46.48 7.40 46.90 8.26L48.05 8.26C47.58 6.79 46.22 5.74 44.59 5.74C42.58 5.74 40.95 7.37 40.95 9.38C40.95 11.39 42.58 13.02 44.59 13.02ZM55.91 12.88L52.36 9.00L55.62 5.88L54.16 5.88L50.98 8.94L50.98 0L49.89 0L49.89 12.88L50.98 12.88L50.98 8.98L54.43 12.88ZM60.43 5.74C59.43 5.74 58.63 6.18 58.10 6.88L58.10 5.88L57.02 5.88L57.02 12.88L58.10 12.88L58.10 9.08C58.10 7.81 59.15 6.83 60.43 6.83C60.64 6.83 60.81 6.84 60.97 6.90L60.97 5.79C60.81 5.76 60.64 5.74 60.43 5.74Z"></path></g><defs data-v-fde0c5aa=""><!----></defs><g data-v-fde0c5aa="" id="c71c12a5-b4ac-4c5e-a64e-2bfd7ac6ea72" stroke="none" fill="#294F58" transform="matrix(0.5167221393442306,0,0,0.5167221393442306,38.70076604649294,124.1642036719015)"><path d="M37.039 20.894h26.345l2.408-3.436c1.967-2.965 4.134-5.805 6.009-8.83.89-1.437 2.558-3.789 1.901-5.609-.469-1.3-1.669-1.743-2.955-1.969-.93-.163-5.684-1.364-7.603-.972-1.703.349-3.276 1.157-4.91 1.725-2.301.8-4.848 1.471-7.372 1.333-2.181-.119-4.659-.398-6.715-1.141-1.704-.617-3.35-1.525-5.153-1.834-1.557-.267-7.228.519-8.369.715-8.031 1.382-2.192 7.493 4.006 16.582l2.408 3.436zm58.042 48.181c-6.754-15.562-18.983-32.532-31.794-40.719h-26.58C23.899 36.545 11.672 53.516 4.92 69.075c-6.77 15.598 1.351 30.924 16.825 30.924h56.511c15.474 0 23.595-15.326 16.825-30.924zM52.47 83.203v6.316h-5.029v-5.948c-3.863-.122-7.726-1.226-9.935-2.698l1.657-5.765c2.392 1.411 5.826 2.698 9.567 2.698 3.863 0 6.5-1.901 6.5-4.844 0-2.76-2.147-4.539-6.685-6.194-6.44-2.331-10.61-5.274-10.61-10.978 0-5.274 3.679-9.321 9.873-10.425v-6.01h5.029v5.703c3.863.123 6.5 1.042 8.463 2.024l-1.655 5.641c-1.473-.675-4.171-2.085-8.341-2.085-4.292 0-5.825 2.208-5.825 4.294 0 2.514 2.208 3.923 7.419 6.009 6.869 2.576 9.936 5.888 9.936 11.345 0 5.215-3.618 9.814-10.364 10.917z"></path></g><!----></svg>