<svg data-v-fde0c5aa="" xmlns="http://www.w3.org/2000/svg" viewBox="0 0 300 300" class="font"><!----><defs data-v-fde0c5aa=""><!----></defs><rect data-v-fde0c5aa="" fill="#48B68D" x="0" y="0" width="300px" height="300px" class="logo-background-square"></rect><defs data-v-fde0c5aa=""><!----></defs><g data-v-fde0c5aa="" id="0d8cdad5-462e-41b1-9e0b-e67d7b773e56" fill="#294F58" transform="matrix(3.6857093483277965,0,0,3.6857093483277965,35.28229213958941,126.00603129879413)"><path d="M6.46 7.56C7.39 7.14 8.00 6.30 8.00 5.18C8.00 3.54 6.70 2.38 5.09 2.38L1.28 2.38L1.28 12.88L5.46 12.88C7.05 12.88 8.33 11.74 8.33 10.12C8.33 8.84 7.56 7.93 6.46 7.56ZM6.88 5.27C6.88 6.30 6.02 7.09 4.97 7.09L2.38 7.09L2.38 3.50L4.97 3.50C6.02 3.50 6.88 4.23 6.88 5.27ZM5.32 11.76L2.38 11.76L2.38 8.17L5.32 8.17C6.35 8.17 7.21 8.96 7.21 9.99C7.21 11.03 6.35 11.76 5.32 11.76ZM11.11 4.57C11.52 4.57 11.87 4.23 11.87 3.83C11.87 3.39 11.52 3.08 11.11 3.08C10.69 3.08 10.34 3.39 10.34 3.83C10.34 4.23 10.69 4.57 11.11 4.57ZM10.57 12.88L11.66 12.88L11.66 5.88L10.57 5.88ZM14.33 12.88L15.42 12.88L15.42 0L14.33 0ZM17.97 12.88L19.06 12.88L19.06 0L17.97 0ZM24.83 6.93L24.83 5.88L22.96 5.88L22.96 2.83L21.88 2.83L21.88 5.88L20.70 5.88L20.70 6.93L21.88 6.93L21.88 11.04C21.88 12.15 22.80 13.02 23.89 13.02C24.24 13.02 24.62 12.92 24.82 12.79L24.82 11.97L24.01 11.97C23.45 11.97 22.96 11.55 22.96 10.90L22.96 6.93ZM30.10 5.74C29.10 5.74 28.30 6.18 27.77 6.88L27.77 5.88L26.69 5.88L26.69 12.88L27.77 12.88L27.77 9.08C27.77 7.81 28.82 6.83 30.10 6.83C30.31 6.83 30.48 6.84 30.64 6.90L30.64 5.79C30.48 5.76 30.31 5.74 30.10 5.74ZM39.52 11.97C39.13 11.97 38.80 11.71 38.80 11.06L38.80 5.88L37.71 5.88L37.71 6.79C37.06 6.14 36.16 5.74 35.16 5.74C33.15 5.74 31.52 7.37 31.52 9.38C31.52 11.39 33.15 13.02 35.16 13.02C36.21 13.02 37.15 12.53 37.82 11.81C38.05 12.53 38.61 13.02 39.43 13.02C39.62 13.02 39.81 12.97 39.95 12.88L39.95 11.97ZM35.16 11.94C33.74 11.94 32.60 10.80 32.60 9.38C32.60 7.96 33.74 6.83 35.16 6.83C36.56 6.83 37.71 7.96 37.71 9.38C37.71 10.80 36.56 11.94 35.16 11.94ZM44.59 13.02C46.22 13.02 47.58 11.97 48.05 10.50L46.90 10.50C46.48 11.36 45.61 11.94 44.59 11.94C43.17 11.94 42.04 10.82 42.04 9.38C42.04 7.95 43.17 6.83 44.59 6.83C45.61 6.83 46.48 7.40 46.90 8.26L48.05 8.26C47.58 6.79 46.22 5.74 44.59 5.74C42.58 5.74 40.95 7.37 40.95 9.38C40.95 11.39 42.58 13.02 44.59 13.02ZM55.91 12.88L52.36 9.00L55.62 5.88L54.16 5.88L50.98 8.94L50.98 0L49.89 0L49.89 12.88L50.98 12.88L50.98 8.98L54.43 12.88ZM60.43 5.74C59.43 5.74 58.63 6.18 58.10 6.88L58.10 5.88L57.02 5.88L57.02 12.88L58.10 12.88L58.10 9.08C58.10 7.81 59.15 6.83 60.43 6.83C60.64 6.83 60.81 6.84 60.97 6.90L60.97 5.79C60.81 5.76 60.64 5.74 60.43 5.74Z"></path></g><!----><!----></svg>